<svg id="Layer_1" data-name="Layer 1" xmlns="http://www.w3.org/2000/svg" viewBox="0 0 273.43 47.44"><defs><style>.cls-1{fill:none;}.cls-2{fill:#fff;}</style></defs><path class="cls-1" d="M87.52,24a3.3,3.3,0,0,0,.35-1.64,2.51,2.51,0,0,0-.7-2.05,3.89,3.89,0,0,0-2.41-.57H84.2v5.3a7.89,7.89,0,0,0,2.36-.21A2,2,0,0,0,87.52,24Z"/><path class="cls-1" d="M101.58,31.54a1.24,1.24,0,0,0,.59-.16.58.58,0,0,0,.22-.46,1.61,1.61,0,0,0-.19-.65l-.13-.32-.39-1H97.36l-.28.69a3.48,3.48,0,0,0-.29,1,.76.76,0,0,0,.34.71,2.21,2.21,0,0,0,.91.19h3.54Z"/><path class="cls-1" d="M167.7,18.05l-1,.95a2.2,2.2,0,0,0-.31,1.33v5.54a8.86,8.86,0,0,0,.25,2.38,2.79,2.79,0,0,0,1.09,1.48,3.37,3.37,0,0,0,2,.61,3.58,3.58,0,0,0,2.17-.66,2.91,2.91,0,0,0,1.18-1.58,10,10,0,0,0,.27-2.62V20.76a1.87,1.87,0,0,0-2.08-2.15v-.92h-3c-.16.09-.32.18-.49.26Z"/><path class="cls-1" d="M138.27,27.3a3,3,0,0,0,.7,1.81,2.05,2.05,0,0,0,1.63.91,1.88,1.88,0,0,0,1.26-.5L139.12,26A1.58,1.58,0,0,0,138.27,27.3Z"/><path class="cls-1" d="M141.69,22.25a1.24,1.24,0,0,0-.32-.89,1,1,0,0,0-.77-.33,1,1,0,0,0-.62.21.78.78,0,0,0-.27.66,3.24,3.24,0,0,0,.95,1.87A1.94,1.94,0,0,0,141.69,22.25Z"/><polygon class="cls-1" points="99.46 23.55 97.8 27.73 101.2 27.73 99.46 23.55"/><path class="cls-1" d="M32.62,30.15a8.54,8.54,0,0,0,.91-4.59,9.22,9.22,0,0,0-.86-4.49A2.89,2.89,0,0,0,30,19.59,2.89,2.89,0,0,0,27.33,21a8.47,8.47,0,0,0-.87,4.38A9.38,9.38,0,0,0,27.33,30a2.82,2.82,0,0,0,2.58,1.43A3.09,3.09,0,0,0,32.62,30.15Z"/><path class="cls-1" d="M187.16,18.72h-3.94l6.56,7.32V20.91a2,2,0,0,0-2.22-2.2h-.4Z"/><path class="cls-1" d="M72,23.93a2.48,2.48,0,0,0,.56-1.85,2.85,2.85,0,0,0-.35-1.55,1.57,1.57,0,0,0-.93-.74,6.43,6.43,0,0,0-1.69-.17v4.84h.72A2.38,2.38,0,0,0,72,23.93Z"/><path class="cls-1" d="M128.79,19.59A2.9,2.9,0,0,0,126.16,21a8.47,8.47,0,0,0-.87,4.38,9.38,9.38,0,0,0,.87,4.67,2.82,2.82,0,0,0,2.59,1.43,3.08,3.08,0,0,0,2.7-1.3c.61-.88.91-2.41.91-4.59a9.22,9.22,0,0,0-.86-4.49A2.88,2.88,0,0,0,128.79,19.59Z"/><path class="cls-1" d="M70.2,31.09a2,2,0,0,0,1,.2,1.68,1.68,0,0,0,1.48-.7,3.57,3.57,0,0,0,.49-2.08,3.79,3.79,0,0,0-.32-1.73,1.6,1.6,0,0,0-.88-.84,4.64,4.64,0,0,0-1.65-.22h-.68v4a2.55,2.55,0,0,0,.12.88A1,1,0,0,0,70.2,31.09Z"/><path class="cls-1" d="M257.61,30a1.92,1.92,0,0,0,1,.33h.21A1.73,1.73,0,0,0,260.2,30a2.08,2.08,0,0,0,.32-1.33v-8.3a2.54,2.54,0,0,0-.44-1.5l-7.51,0,3.86,9.22A4.35,4.35,0,0,0,257.61,30Z"/><polygon class="cls-1" points="248.46 26.52 251.87 26.52 250.12 22.33 248.46 26.52"/><path class="cls-1" d="M199.75,19a2.15,2.15,0,0,0-.31,1.33v3.91l3.8-3.5c.66-.6,1-1.1,1-1.49s-.38-.6-1.1-.62h-2.24A1.54,1.54,0,0,0,199.75,19Z"/><polygon class="cls-1" points="51.45 31.55 48.28 23.4 45.55 31.55 48.1 31.55 51.45 31.55"/><path class="cls-1" d="M87.53,28.9A20.5,20.5,0,0,0,86.38,27a1.56,1.56,0,0,0-.68-.54,6.06,6.06,0,0,0-1.5-.13v3.32A2,2,0,0,0,84.53,31a1.78,1.78,0,0,0,1.37.55h.25v0H89C88.62,30.88,88.13,30,87.53,28.9Z"/><path class="cls-1" d="M264.19,24.05h.69a2.65,2.65,0,0,0,2.19-.72,3.06,3.06,0,0,0,.55-1.92,3.36,3.36,0,0,0-.41-1.75,1.9,1.9,0,0,0-1-.87,6.28,6.28,0,0,0-1.71-.19l-.29,0Z"/><path class="cls-1" d="M241.88,19.45a3.32,3.32,0,0,1,.49,1.76q0,2.5-2.84,3.42a11.2,11.2,0,0,1,2.35,3A10.94,10.94,0,0,0,243.65,30a1.8,1.8,0,0,0,.95.36c.74-.16,1.38-.9,1.91-2.22l3.71-9.23-8.77,0A2.9,2.9,0,0,1,241.88,19.45Z"/><path class="cls-1" d="M235.43,18.74h-.57v5.3a7.39,7.39,0,0,0,2.36-.22,1.78,1.78,0,0,0,1-.84,3.18,3.18,0,0,0,.36-1.63,2.51,2.51,0,0,0-.7-2.05A3.83,3.83,0,0,0,235.43,18.74Z"/><path class="cls-1" d="M215.45,19.22a2.34,2.34,0,0,0,.43,1.05l2.3,3.81,2.11-3.52a2,2,0,0,0,.33-1c0-.52-.35-.81-1-.88h-3.43C215.7,18.71,215.45,18.9,215.45,19.22Z"/><polygon class="cls-1" points="8.94 32.35 15.42 32.35 11.93 23.4 8.94 32.35"/><path d="M11.93,23.4l3.49,9h.06l-.2-.81h2.29L20,22.73a7.35,7.35,0,0,1,1.09-2.66,1.53,1.53,0,0,1,1.09-.43V18.49H17.71v1.15c.92,0,1.38.4,1.38,1.21a4.21,4.21,0,0,1-.18,1l-1.56,5.69-3.56-9.06h-1.6l-3,9.06-2-6.26a3.3,3.3,0,0,1-.16-.95c0-.47.38-.7,1.14-.7V18.49H1.85v1.15a1.62,1.62,0,0,1,1.06.28,4.57,4.57,0,0,1,.79,1.77L7,32.35h2Z"/><path d="M29.86,31.58l4.43,0L33.8,32a6.85,6.85,0,0,0,1.93-1.35,7,7,0,0,0,2.1-5.07,7.18,7.18,0,0,0-2.1-5.24,7.8,7.8,0,0,0-5.82-2.14,8.9,8.9,0,0,0-3.86.86,6.52,6.52,0,0,0-2.86,2.67,7.16,7.16,0,0,0-1.06,3.69A8.3,8.3,0,0,0,22.94,29a6,6,0,0,0,2.37,2.6h4.55ZM27.33,30a9.38,9.38,0,0,1-.87-4.67A8.47,8.47,0,0,1,27.33,21,2.89,2.89,0,0,1,30,19.59a2.89,2.89,0,0,1,2.71,1.48,9.22,9.22,0,0,1,.86,4.49,8.54,8.54,0,0,1-.91,4.59,3.09,3.09,0,0,1-2.71,1.3A2.82,2.82,0,0,1,27.33,30Z"/><path d="M45.56,31.56l2.72-8.16,3.17,8.16h1.71v.79h.37v-.71h.36l2.48-8.9a7.4,7.4,0,0,1,1.08-2.66,1.57,1.57,0,0,1,1.1-.43V18.49H54.06v1.15c.92,0,1.38.4,1.38,1.21a4.21,4.21,0,0,1-.18,1l-1.57,5.69-3.55-9.06H48.53l-3,9.06-2-6.26a3.3,3.3,0,0,1-.16-.95c0-.47.38-.7,1.15-.7V18.49H38.2v1.15a1.59,1.59,0,0,1,1,.28,4.53,4.53,0,0,1,.8,1.77l3,9.87h2.48Z"/><path d="M67.35,32.35H69v-.79h6.85l0,0a3.43,3.43,0,0,0,.29-5.17,6.15,6.15,0,0,0-3.1-1.32,6,6,0,0,0,2.63-1.28,2.64,2.64,0,0,0,.88-2,2.81,2.81,0,0,0-1.33-2.46c-.88-.61-2.54-.91-5-.91H69.5l-5.39.16v1.15a2.15,2.15,0,0,1,1.49.36,2,2,0,0,1,.34,1.35v8.23A2,2,0,0,1,65.58,31a2.28,2.28,0,0,1-1,.53h2.79Zm2.26-12.73a6.43,6.43,0,0,1,1.69.17,1.57,1.57,0,0,1,.93.74,2.85,2.85,0,0,1,.35,1.55A2.48,2.48,0,0,1,72,23.93a2.38,2.38,0,0,1-1.69.53h-.72Zm0,6.1h.68a4.64,4.64,0,0,1,1.65.22,1.6,1.6,0,0,1,.88.84,3.79,3.79,0,0,1,.32,1.73,3.57,3.57,0,0,1-.49,2.08,1.68,1.68,0,0,1-1.48.7,2,2,0,0,1-1-.2,1,1,0,0,1-.47-.5,2.55,2.55,0,0,1-.12-.88Z"/><path d="M82.6,32.35h2.67v-.79h.88v0H85.9A1.78,1.78,0,0,1,84.53,31a2,2,0,0,1-.33-1.34V26.33a6.06,6.06,0,0,1,1.5.13,1.56,1.56,0,0,1,.68.54,20.5,20.5,0,0,1,1.15,1.9c.6,1.08,1.09,2,1.48,2.66h1.07v.79h3.54v-.93l.16,0A2.49,2.49,0,0,1,93,31a10.94,10.94,0,0,1-1.77-2.33,11.17,11.17,0,0,0-2.35-3q2.83-.91,2.84-3.42a3.47,3.47,0,0,0-1.8-3,4.76,4.76,0,0,0-1.7-.6,21.74,21.74,0,0,0-2.74-.13l-1.26,0H78.58v1.15h.27A1.8,1.8,0,0,1,80.2,20a2.08,2.08,0,0,1,.33,1.34v8.3A2.15,2.15,0,0,1,80.22,31a1.49,1.49,0,0,1-1.26.56h-.53v0H82.6Zm1.6-12.58h.56a3.89,3.89,0,0,1,2.41.57,2.51,2.51,0,0,1,.7,2.05A3.3,3.3,0,0,1,87.52,24a2,2,0,0,1-1,.84,7.89,7.89,0,0,1-2.36.21Z"/><path d="M94.15,32.35h1.1v-.79H98a2.21,2.21,0,0,1-.91-.19.76.76,0,0,1-.34-.71,3.48,3.48,0,0,1,.29-1l.28-.69h4.32l.39,1,.13.32a1.61,1.61,0,0,1,.19.65.58.58,0,0,1-.22.46,1.24,1.24,0,0,1-.59.16h.56a21.67,21.67,0,0,1,2.73.13,4.93,4.93,0,0,1,1.7.59l.13.1h.06l-.23-.77h.15l-.91-2.28-4.39-10.87h-1.22L95.84,29.31c-.58,1.44-1.24,2-2.06,2.09a1.21,1.21,0,0,0,.37.07Zm5.31-8.8,1.74,4.18H97.8Z"/><path d="M93.62,32.35h.53v-.88a1.21,1.21,0,0,1-.37-.07l-.16,0Z"/><path d="M118.47,22.84a11.72,11.72,0,0,1,1.42-2.75,1.78,1.78,0,0,1,1.31-.45V18.49h-4.93v1.15q1.56,0,1.56,1a3.18,3.18,0,0,1-.3,1.19l-2.7,6.37L112,21.8a4.15,4.15,0,0,1-.44-1.4c0-.51.52-.76,1.56-.76V18.49h-7.46v1.15a2.71,2.71,0,0,1,1.15.18,1.42,1.42,0,0,1,.58.56c.14.24.41.8.8,1.67l4.25,9.53h2.35Z"/><path d="M136.6,26.58a7.61,7.61,0,0,0,.07-1,7.19,7.19,0,0,0-2.11-5.24,7.78,7.78,0,0,0-5.81-2.14,8.94,8.94,0,0,0-3.87.86A6.57,6.57,0,0,0,122,21.77a7.24,7.24,0,0,0-1,3.69,8.28,8.28,0,0,0,.8,3.49,6,6,0,0,0,2.42,2.63h6c1.42,0,2.5-.11,3.27,0h0a6.68,6.68,0,0,0,1.05-.86,7.43,7.43,0,0,0,1.34-1.82,2.21,2.21,0,0,1,0-.37A3,3,0,0,1,136.6,26.58Zm-5.15,3.57a3.08,3.08,0,0,1-2.7,1.3A2.82,2.82,0,0,1,126.16,30a9.38,9.38,0,0,1-.87-4.67,8.47,8.47,0,0,1,.87-4.38,3.21,3.21,0,0,1,5.34.1,9.22,9.22,0,0,1,.86,4.49C132.36,27.74,132.06,29.27,131.45,30.15Z"/><path d="M26.14,32.35l0-.38c-.15-.07-.31-.13-.45-.21s-.22-.14-.34-.21H17.57l-.23.81Z"/><polygon points="15.48 32.35 17.34 32.35 17.57 31.54 15.28 31.54 15.48 32.35"/><path d="M26.1,32l0-.36,3.8,0v0H25.31c.12.07.22.15.34.21S26,31.9,26.1,32Z"/><rect x="37.27" y="31.56" width="4.29" height="0.8"/><path d="M33.48,32.35l.23-.21.09-.1a7.28,7.28,0,0,1-.77.31Z"/><path d="M29.86,31.58l0,.77H33A7.28,7.28,0,0,0,33.8,32l.49-.48Z"/><path d="M26.1,32l0,.38h.91A7.24,7.24,0,0,1,26.1,32Z"/><path d="M29.88,32.35l0-.77-3.8,0,0,.36a7.24,7.24,0,0,0,.95.38Z"/><polygon points="59.43 32.35 59.43 31.55 53.89 31.63 53.69 32.35 59.43 32.35"/><polygon points="53.53 32.35 53.69 32.35 53.89 31.63 53.53 31.64 53.53 32.35"/><path d="M74.16,32.35h1.19v-.51A5.46,5.46,0,0,1,74.16,32.35Z"/><path d="M64.11,32.35v-.74a3.1,3.1,0,0,0,.45-.05H59.43v.79Z"/><path d="M75.35,31.84v-.28H69v.79h5.18A5.46,5.46,0,0,0,75.35,31.84Z"/><path d="M64.11,32.35h3.24v-.79H64.56a3.1,3.1,0,0,1-.45.05Z"/><path d="M75.38,32.35h3l0-.79h-2.6c-.13.09-.29.18-.45.27Z"/><path d="M89.5,32.35c-.14-.21-.3-.48-.49-.79H86.15l0,.79Z"/><path d="M75.38,31.83c.16-.09.32-.18.45-.27h-.45Z"/><polygon points="86.15 31.55 85.27 31.55 85.27 32.35 86.13 32.35 86.15 31.55"/><polygon points="82.6 32.35 82.6 31.55 78.42 31.55 78.41 32.35 82.6 32.35"/><path d="M90.08,32.35v-.79H89c.19.31.35.58.49.79Z"/><path d="M75.35,32.35h0v-.52h0Z"/><path d="M75.38,31.83v-.27h0v.28Z"/><path d="M98.25,32.35H101v-.78a5,5,0,0,0,.59,0H98l.21,0Z"/><path d="M101,32.35h5.71l-.13-.1a4.93,4.93,0,0,0-1.7-.59,21.67,21.67,0,0,0-2.73-.13h-.56a5,5,0,0,1-.59,0Z"/><path d="M98.25,31.57l-.21,0H95.25v.79h3Z"/><path d="M135.91,32.35a2.61,2.61,0,0,0-.28-.17,5.57,5.57,0,0,0-2.12-.63,7,7,0,0,1-1.65.8Z"/><polygon points="116.47 32.35 116.78 31.58 114.74 31.58 114.41 32.35 116.47 32.35"/><path d="M125.88,32.35a7.54,7.54,0,0,1-1.4-.59,2.82,2.82,0,0,1-.29-.18H118l.32.77Z"/><polygon points="112.74 32.35 112.39 31.58 106.68 31.58 106.99 32.35 112.74 32.35"/><polygon points="106.76 32.35 106.99 32.35 106.68 31.58 106.53 31.58 106.76 32.35"/><polygon points="114.41 32.35 114.74 31.58 112.39 31.58 112.74 32.35 114.41 32.35"/><path d="M130.22,31.58h-6a2.82,2.82,0,0,0,.29.18,7.54,7.54,0,0,0,1.4.59h6a7,7,0,0,0,1.65-.8h0C132.72,31.47,131.64,31.58,130.22,31.58Z"/><polygon points="118.32 32.35 118 31.58 116.78 31.58 116.47 32.35 118.32 32.35"/><polygon points="48.81 32.35 51.76 32.35 51.45 31.55 48.1 31.55 48.81 32.35"/><polygon points="43.33 32.35 43.08 31.55 42.47 31.55 42.47 32.35 43.33 32.35"/><polygon points="43.47 32.35 43.36 31.55 43.08 31.55 43.33 32.35 43.47 32.35"/><polygon points="53.16 32.35 53.16 31.55 51.45 31.55 51.76 32.35 53.16 32.35"/><rect x="41.57" y="31.56" width="0.9" height="0.8"/><polygon points="48.81 32.35 48.1 31.55 45.55 31.55 45.29 32.35 48.81 32.35"/><polygon points="45.55 31.55 43.36 31.55 43.47 32.35 45.29 32.35 45.55 31.55"/><path class="cls-2" d="M106.76,32.35h-.06l.08.06Z"/><polygon points="149.19 17.7 149.59 18.72 149.34 17.7 149.19 17.7"/><path d="M167.8,18c.17-.08.33-.17.49-.26h-.23Z"/><path d="M187.53,17.69h-.37v1h.37Z"/><path d="M203,17.69h-1.64v.92h-.23l-.22,0h2.24l-.15,0Z"/><path d="M219.27,17.69H216.6v.92a2.63,2.63,0,0,0-.43,0h3.43a1.75,1.75,0,0,0-.33,0Z"/><path d="M224.08,17.69v.92h3.53v-.93Z"/><path d="M240.78,18.32l-.19-.63h-1.24a5.11,5.11,0,0,1,1.22.47C240.65,18.21,240.7,18.27,240.78,18.32Z"/><path d="M229.24,18.61v-.92h-1.09v.93h1.1Z"/><polygon points="227.62 17.69 227.61 18.62 228.14 18.62 228.15 17.69 227.62 17.69"/><path d="M264.19,18.63l.29,0h-.29Z"/><path d="M146.52,30.23a2.79,2.79,0,0,1-1.17-.53,7.63,7.63,0,0,1-1-1.17,15.68,15.68,0,0,0,1.12-1.63,6.62,6.62,0,0,1,.88-1.2,2,2,0,0,1,1-.46v-.93h-3.46v.93c.5,0,.75.21.75.59a4,4,0,0,1-.92,1.86l-2.34-3.05a2.82,2.82,0,0,0,1.83-2.49,1.81,1.81,0,0,0-.73-1.53,3,3,0,0,0-1.9-.56,3.11,3.11,0,0,0-2.09.68,2.42,2.42,0,0,0-.78,1.91,4.74,4.74,0,0,0,.87,2.41,6.37,6.37,0,0,0-1.93,1.52,6.7,6.7,0,0,1-.7,2.29,2.79,2.79,0,0,0,1,1.79,3.45,3.45,0,0,0,2.4.92,5.56,5.56,0,0,0,3.32-1.29,3.55,3.55,0,0,0,2.67,1.23l3.44,0V30.35C147.78,30.33,146.52,30.23,146.52,30.23Zm-6.54-9a1,1,0,0,1,.62-.21,1,1,0,0,1,.77.33,1.24,1.24,0,0,1,.32.89,1.94,1.94,0,0,1-1,1.52,3.24,3.24,0,0,1-.95-1.87A.78.78,0,0,1,140,21.24ZM140.6,30a2.05,2.05,0,0,1-1.63-.91,3,3,0,0,1-.7-1.81,1.58,1.58,0,0,1,.85-1.35l2.74,3.57A1.88,1.88,0,0,1,140.6,30Z"/><path d="M135.86,28.5a2.21,2.21,0,0,0,0,.37,6.7,6.7,0,0,0,.7-2.29A3,3,0,0,0,135.86,28.5Z"/><path d="M162.37,19a4.92,4.92,0,0,0-2.19-.4l-.08-.69a3,3,0,0,1-.41-.19H151.5l-.29,1h-1.62a1.43,1.43,0,0,1,.71.47c.22.25.28.48.28,1.12v8.32a2.08,2.08,0,0,1-.32,1.33,1.73,1.73,0,0,1-1.36.39h.37l.63,1.13h6.35V30.35H156a1.81,1.81,0,0,1-1.37-.38,2,2,0,0,1-.34-1.34V24.8h1.09a1.47,1.47,0,0,1,1.14.36,2.72,2.72,0,0,1,.36,1.48H158V21.82h-1.15a2.36,2.36,0,0,1-.38,1.38,1.41,1.41,0,0,1-1.09.34h-1.12V18.77h2.21c.59,0,4.53,0,4.82.1a2.05,2.05,0,0,1,.84.77,5,5,0,0,1,.59,1.33v-.64A2,2,0,0,0,162.37,19Z"/><polygon points="151.5 17.7 149.34 17.7 149.59 18.72 151.21 18.72 151.5 17.7"/><path d="M159.69,17.69a3,3,0,0,0,.41.19l0-.19Z"/><path d="M149.27,30.35h-.57v1.14h1.2Z"/><path d="M149.4,30.34h0Z"/><path d="M149.59,30.33Z"/><path d="M149.27,30.35h0Z"/><path d="M149.58,30.33h0Z"/><path d="M175.56,17.69h-4.29v.92a1.87,1.87,0,0,1,2.08,2.15v4.72a10,10,0,0,1-.27,2.62,2.91,2.91,0,0,1-1.18,1.58,3.58,3.58,0,0,1-2.17.66,3.37,3.37,0,0,1-2-.61,2.79,2.79,0,0,1-1.09-1.48,8.86,8.86,0,0,1-.25-2.38V20.33a2.2,2.2,0,0,1,.31-1.33l1-.95.1-.1a8.78,8.78,0,0,1-3.79.77h-.12l.06,2.47h-1.17c0-.08-.05-.13-.07-.21v4.9a9.46,9.46,0,0,0,.24,2.27,4.33,4.33,0,0,0,.93,1.77,4.93,4.93,0,0,0,2,1.34,7.47,7.47,0,0,0,2.91.54,7.36,7.36,0,0,0,2.83-.54,4.83,4.83,0,0,0,2-1.43,4.19,4.19,0,0,0,.91-1.84,12.78,12.78,0,0,0,.19-2.46V20.83a3.48,3.48,0,0,1,.19-1.26,1.38,1.38,0,0,1,.67-.7,2,2,0,0,1,.35-.14h-.32Z"/><path d="M163.86,17.69l0,1H164A8.78,8.78,0,0,0,167.8,18l.26-.26Z"/><path d="M164,21.18l-.06-2.47a8.9,8.9,0,0,1-3.79-.83l.08.69a4.92,4.92,0,0,1,2.19.4,2,2,0,0,1,.34,1.36V21c0,.08,0,.13.07.21Z"/><path d="M160.07,17.69l0,.19a8.9,8.9,0,0,0,3.79.83l0-1Z"/><path d="M187.84,17.69l-.28,1a2,2,0,0,1,2.22,2.2v5.14l-6.56-7.32h-4.74c.62.32.88,1,.88,2v7.15a4.88,4.88,0,0,1-.13,1.35,1.44,1.44,0,0,1-.64.76,2,2,0,0,1-1.16.33V31.5h5.26V30.35a2.23,2.23,0,0,1-1.44-.45c-.38-.3-.57-1-.57-2V21.46l9.1,10.26h1.32V21a4,4,0,0,1,.17-1.31,1.45,1.45,0,0,1,.63-.74,4.16,4.16,0,0,1,1.53-.29v-.92Z"/><path d="M187.53,18.71h0l.28-1h-.31Z"/><path d="M209.34,17.75a7.88,7.88,0,0,1-3.88.88h-2.33c.72,0,1.1.23,1.1.62s-.33.89-1,1.49l-3.8,3.5V20.33a2.15,2.15,0,0,1,.31-1.33,1.54,1.54,0,0,1,1.14-.37H198.1v-.94h-4.67v.92h.22a3.24,3.24,0,0,1,1.79.38,2.14,2.14,0,0,1,.32,1.34v8.3a2.15,2.15,0,0,1-.31,1.33,1.76,1.76,0,0,1-1.37.39h-.22V31.5h7.32V30.35a1.87,1.87,0,0,1-1.41-.38,2,2,0,0,1-.33-1.34V26l1.43-1.31,2.67,3.88a3.41,3.41,0,0,1,.64,1.2c0,.42-.53.63-1.58.63V31.5h8.06V30.35a2.92,2.92,0,0,1-1.7-.46,8.06,8.06,0,0,1-1.6-1.91l-3.88-5.73,1.29-1.18a12,12,0,0,1,2.64-2,5.08,5.08,0,0,1,2-.44h0Z"/><path d="M203,17.69v.92l.15,0h2.33a7.88,7.88,0,0,0,3.88-.88v-.06Z"/><path d="M201.34,18.61v-.92H198.1v.94h2.79l.22,0Z"/><path d="M223.14,17.69h-3l0,1h-.52c.67.07,1,.36,1,.88a2,2,0,0,1-.33,1l-2.11,3.52-2.3-3.81a2.34,2.34,0,0,1-.43-1.05c0-.32.25-.51.72-.57H212.4l0-1h-3l-.08,0v.87h0a2.62,2.62,0,0,1,1.29.31,5.84,5.84,0,0,1,1.17,1.55L215,25.74v2.89a2.08,2.08,0,0,1-.32,1.33c-.2.26-.66.39-1.37.39h-.22V31.5h7.52V30.35h-.22A1.8,1.8,0,0,1,219,30a2.14,2.14,0,0,1-.32-1.34V25.52l2.66-4.31a11.67,11.67,0,0,1,1.52-2.1,1.75,1.75,0,0,1,1.13-.49h-.25A7.47,7.47,0,0,1,223.14,17.69Z"/><path d="M209.37,17.74l.08,0h-.08Z"/><path d="M216.6,17.69h-4.18l0,1h3.77a2.63,2.63,0,0,1,.43,0Z"/><path d="M219.27,18.61a1.75,1.75,0,0,1,.33,0h.52l0-1h-.87Z"/><path d="M224.08,17.69h-.94a7.47,7.47,0,0,0,.61.93h.33Z"/><path d="M209.37,17.74h0v.86h0Z"/><path d="M209.34,17.69v.06h0v0Z"/><path d="M244.6,30.31a1.8,1.8,0,0,1-.95-.36,10.94,10.94,0,0,1-1.77-2.33,11.2,11.2,0,0,0-2.35-3q2.83-.91,2.84-3.42a3.32,3.32,0,0,0-.49-1.76,2.9,2.9,0,0,0-.43-.55H241l-.08-.28H235v-.93h-2.74v.93h-2.58a1.67,1.67,0,0,1,1.2.37,2.06,2.06,0,0,1,.33,1.34v8.3a2.22,2.22,0,0,1-.31,1.33,1.76,1.76,0,0,1-1.37.39h-.28V31.5h7.56V30.35h-.25A1.8,1.8,0,0,1,235.2,30a2,2,0,0,1-.34-1.34V25.31a5.63,5.63,0,0,1,1.51.13,1.56,1.56,0,0,1,.68.54,18,18,0,0,1,1.15,1.9,31.08,31.08,0,0,0,2.22,3.62h3.86V30.35A1.12,1.12,0,0,0,244.6,30.31ZM238.18,23a1.78,1.78,0,0,1-1,.84,7.39,7.39,0,0,1-2.36.22v-5.3h.57a3.83,3.83,0,0,1,2.41.57,2.51,2.51,0,0,1,.7,2.05A3.18,3.18,0,0,1,238.18,23Z"/><path d="M232.25,17.69h-3v.92h3Z"/><path d="M240.57,18.16a5.11,5.11,0,0,0-1.22-.47H235v.93h5.88l-.09-.3C240.7,18.27,240.65,18.21,240.57,18.16Z"/><path d="M258.63,30.35a1.92,1.92,0,0,1-1-.33,4.35,4.35,0,0,1-1.18-1.94l-3.86-9.22h-2.35l-3.71,9.23c-.53,1.32-1.17,2.06-1.91,2.22a1.55,1.55,0,0,0,.21,0V31.5h4.11V30.35a2.37,2.37,0,0,1-1.12-.2.75.75,0,0,1-.34-.71,3.23,3.23,0,0,1,.29-1l.27-.69h4.32l.4,1,.12.33a1.57,1.57,0,0,1,.2.65.58.58,0,0,1-.23.46,2.28,2.28,0,0,1-1.17.18V31.5h6.93V30.35Zm-10.17-3.83,1.66-4.19,1.75,4.19Z"/><path d="M244.6,30.31a1.12,1.12,0,0,1-.32,0V31.5h.53V30.35A1.55,1.55,0,0,1,244.6,30.31Z"/><path d="M264.48,18.6a6.28,6.28,0,0,1,1.71.19,1.9,1.9,0,0,1,1,.87,3.36,3.36,0,0,1,.41,1.75,3.06,3.06,0,0,1-.55,1.92,2.65,2.65,0,0,1-2.19.72h-.69V18.63a9.62,9.62,0,0,1-1.34.09,8.91,8.91,0,0,1-4.35-1h-6.42l.49,1.18,7.51,0a2.54,2.54,0,0,1,.44,1.5v8.3A2.08,2.08,0,0,1,260.2,30a1.73,1.73,0,0,1-1.36.39h-.21V31.5h7.57V30.35h-.32a1.81,1.81,0,0,1-1.36-.38,2.06,2.06,0,0,1-.33-1.34V25.29h1A14.6,14.6,0,0,0,268.6,25a4.06,4.06,0,0,0,2.13-1.29,3.46,3.46,0,0,0,.85-2.36,3.62,3.62,0,0,0-.49-1.86,3.55,3.55,0,0,0-1.47-1.37,5.63,5.63,0,0,0-1-.41h-1.5A7.76,7.76,0,0,1,264.48,18.6Z"/><path d="M248.65,17.68l-.44,1h-1.27l-.46-1h-5.73l.36.87a3.64,3.64,0,0,1,.34.34l8.77,0,.48-1.18Z"/><path d="M241.11,18.56l-.36-.87h-.16l.19.63Z"/><polygon points="248.21 18.72 248.65 17.68 246.48 17.68 246.94 18.72 248.21 18.72"/><path d="M262.85,18.72a9.62,9.62,0,0,0,1.34-.09v0h.29a7.76,7.76,0,0,0,2.66-.92H258.5A8.91,8.91,0,0,0,262.85,18.72Z"/><path d="M241.11,18.56l0,.06h-.26l.08.28h.5A3.64,3.64,0,0,0,241.11,18.56Z"/><path d="M241.13,18.62l0-.06-.33-.24.09.3h.26Z"/><rect x="258.59" y="30.35" width="0.03" height="1.15"/><polygon points="250.22 18.86 252.57 18.86 252.08 17.68 250.7 17.68 250.22 18.86"/><polygon points="187.16 18.72 185.94 18.72 185.54 17.69 182.29 17.69 183.22 18.73 187.16 18.73 187.16 18.72"/><path d="M177.47,18.72l-.32-1h-.69v.92a1.77,1.77,0,0,0-.58.12h1.59Z"/><polygon points="185.94 18.72 187.16 18.72 187.16 17.69 185.54 17.69 185.94 18.72"/><path d="M177.39,17.69h-.24l.32,1h1a2.07,2.07,0,0,0-1-.21Z"/><path d="M176.46,17.69h-.9v1h.32a1.77,1.77,0,0,1,.58-.12Z"/><path d="M182.29,17.69h-2.81l-.35,1h4.09Z"/><path d="M177.5,18.51a2.07,2.07,0,0,1,1,.21h.67l.35-1h-2.09Z"/></svg>